#!OML:ASF I:\golf\golf\golf 2\Subject 1\2002-09-07\Subject1.ASF
:FULLY-SPECIFIED
:DEGREES
337
root -7.02547 18.0673 -3.22612 -171.34 3.63385 -176.46
lowerback -7.09454 11.5388 16.6889
upperback -11.373 19.9353 6.46906
thorax -6.39628 10.609 -1.27062
lowerneck -4.99616 -22.817 -0.937752
upperneck 7.23469 -34.2099 10.6894
head 5.00958 -16.7557 0.845101
rclavicle -2.04351e-013 -1.30403e-013
rhumerus 104.049 35.8129 -49.1597
rradius 63.1766
rwrist 13.9452
rhand -31.6563 26.723
rfingers 7.12502
rthumb -4.91687 -3.19994
lclavicle -2.04351e-013 -1.30403e-013
lhumerus 52.4267 15.6037 70.8334
lradius 81.3338
lwrist 23.0973
lhand 142.366 197.486
lfingers 7.12502
lthumb -190.686 -132.806
rfemur 16.2882 -8.02636 18.1639
rtibia 17.9162
rfoot 17.6776 -38.0936
rtoes 29.8295
lfemur -21.9026 -16.5543 -17.5885
ltibia 23.6372
lfoot 33.5432 -44.8264
ltoes 49.0343
338
root -7.02047 18.0653 -3.28563 -171.076 3.01855 -176.285
lowerback -7.45901 11.6605 16.692
upperback -11.7287 20.1427 6.10069
thorax -6.46251 10.7172 -1.56936
lowerneck -4.24806 -22.912 -1.18562
upperneck 6.38891 -34.1828 11.0878
head 4.7363 -16.8022 1.10971
rclavicle 6.20208e-014 -6.52014e-014
rhumerus 104.482 35.5945 -49.7354
rradius 64.4809
rwrist 14.1581
rhand -32.2644 27.2378
rfingers 7.12502
rthumb -5.50402 -2.6707
lclavicle 6.20208e-014 -6.52014e-014
lhumerus 53.3998 16.6434 69.2731
lradius 82.0221
lwrist 22.4397
lhand 141.763 197.605
lfingers 7.12502
lthumb -191.268 -132.718
rfemur 16.6535 -8.20014 18.4415
rtibia 17.0966
rfoot 18.4639 -38.0939
rtoes 30.3232
lfemur -22.1857 -16.6108 -17.3618
ltibia 23.9043
lfoot 34.4593 -44.791
ltoes 49.5453
339
root -7.01557 18.0611 -3.3407 -170.795 2.37603 -176.007
lowerback -7.91686 11.7505 16.7833
upperback -12.1342 20.3662 5.80708
thorax -6.55525 10.851 -1.82001
lowerneck -2.99364 -22.9866 -1.47883
upperneck 5.3721 -34.0545 11.3331
head 4.3081 -16.8392 1.43549
rclavicle 6.99722e-014 8.26944e-014
rhumerus 104.74 35.3991 -50.2134
rradius 65.8154
rwrist 14.3175
rhand -33.18 27.5134
rfingers 7.12502
rthumb -6.38798 -2.37025
lclavicle 6.99722e-014 8.26944e-014
lhumerus 54.108 17.62 67.8722
lradius 82.5988
lwrist 21.8558
lhand 141.605 197.413
lfingers 7.12502
lthumb -191.42 -132.918
rfemur 16.9771 -8.1817 18.9485
rtibia 16.301
rfoot 19.1729 -38.1339
rtoes 31.0437
lfemur -22.5213 -16.6334 -17.0014
ltibia 24.1615
lfoot 34.8123 -45.4976
ltoes 49.3339
340
root -7.01004 18.0572 -3.39575 -170.621 1.74181 -175.767
lowerback -8.20901 11.8795 16.8665
upperback -12.5313 20.6231 5.40399
thorax -6.67207 10.9749 -2.20533
lowerneck -2.45053 -23.0155 -1.76119
upperneck 5.21055 -34.024 11.3963
head 4.22815 -16.8608 1.54996
rclavicle -3.4191e-014 2.22639e-014
rhumerus 104.896 34.9362 -50.653
rradius 67.0584
rwrist 14.3147
rhand -34.6451 27.4733
rfingers 7.12502
rthumb -7.80227 -2.36277
lclavicle -3.4191e-014 2.22639e-014
lhumerus 54.9337 18.3926 66.7566
lradius 83.1499
lwrist 20.9469
lhand 142.041 197.5
lfingers 7.12502
lthumb -191 -132.808
rfemur 17.4158 -8.06258 19.4409
rtibia 15.4805
rfoot 20.5815 -37.7472
rtoes 29.5046
lfemur -22.7487 -16.6748 -16.7048
ltibia 24.4113
lfoot 34.9742 -46.4761
ltoes 48.8529
341
root -7.00174 18.0557 -3.45176 -170.587 1.15677 -175.571
lowerback -8.31989 11.994 16.8746
upperback -12.8401 20.8077 4.96556
thorax -6.77837 11.0408 -2.62859
lowerneck -2.44606 -22.9935 -1.96329
upperneck 5.32471 -34.0658 11.714
head 4.35341 -16.8743 1.61201
rclavicle -1.26427e-013 -1.27222e-014
rhumerus 105.183 34.2971 -50.993
rradius 68.2036
rwrist 14.1731
rhand -36.1804 28.0369
rfingers 7.12502
rthumb -9.28386 -1.73871
lclavicle -1.26427e-013 -1.27222e-014
lhumerus 55.9476 19.1657 65.7203
lradius 83.6521
lwrist 19.8722
lhand 142.321 197.766
lfingers 7.12502
lthumb -190.73 -132.528
rfemur 18.0312 -7.92595 19.8693
rtibia 14.5828
rfoot 22.4087 -37.1592
rtoes 27.7567
lfemur -22.8349 -16.7626 -16.4743
ltibia 24.6886
lfoot 36.0707 -46.3418
ltoes 49.5895
342
root -6.98955 18.0537 -3.50689 -170.636 0.584886 -175.354
lowerback -8.434 12.0709 16.7906
upperback -12.9886 20.8934 4.67299
thorax -6.78135 11.0749 -2.85306
lowerneck -2.80795 -23.0169 -2.07257
upperneck 5.45529 -34.0765 11.7744
head 4.47619 -16.8509 1.5706
rclavicle -1.86062e-013 -1.94014e-013
rhumerus 105.806 34.1028 -51.1732
rradius 69.0744
rwrist 14.6141
rhand -37.5087 28.7832
rfingers 7.12502
rthumb -10.5654 -0.931257
lclavicle -1.86062e-013 -1.94014e-013
lhumerus 57.0017 20.0884 64.8976
lradius 84.1037
lwrist 19.0873
lhand 142.153 198.067
lfingers 7.12502
lthumb -190.892 -132.236
rfemur 18.6928 -7.525 20.4569
rtibia 13.7205
rfoot 23.6415 -37.0734
rtoes 27.708
lfemur -22.8404 -16.87 -16.2143
ltibia 24.9647
lfoot 37.4706 -45.7445
ltoes 50.8079
343
root -6.97737 18.0483 -3.5559 -170.616 -0.0519836 -175.017
lowerback -8.65381 12.1136 16.7947
upperback -13.0524 20.9208 4.51724
thorax -6.67386 11.1013 -2.94656
lowerneck -3.31549 -23.0121 -2.43937
upperneck 5.69749 -34.0109 11.7832
head 4.67995 -16.7734 1.51254
rclavicle -1.00187e-013 2.8625e-014
rhumerus 106.478 33.5726 -51.0707
rradius 70.0507
rwrist 14.5916
rhand -38.5363 29.468
rfingers 7.12502
rthumb -11.5565 -0.193341
lclavicle -1.00187e-013 2.8625e-014
lhumerus 57.9641 21.1144 64.3871
lradius 84.5982
lwrist 18.6421
lhand 141.586 198.313
lfingers 7.12502
lthumb -191.439 -132.019
rfemur 19.1783 -7.17002 21.1876
rtibia 12.9859
rfoot 24.4953 -37.1124
rtoes 27.887
lfemur -22.9387 -17.0302 -15.7732
ltibia 25.2003
lfoot 38.2415 -45.799
ltoes 51.2947
